<?xml version="1.0" encoding="UTF-8" standalone="no"?>
<!-- Created with Inkscape (http://www.inkscape.org/) -->

<svg
   xmlns:dc="http://purl.org/dc/elements/1.1/"
   xmlns:cc="http://creativecommons.org/ns#"
   xmlns:rdf="http://www.w3.org/1999/02/22-rdf-syntax-ns#"
   xmlns:svg="http://www.w3.org/2000/svg"
   xmlns="http://www.w3.org/2000/svg"
   xmlns:sodipodi="http://sodipodi.sourceforge.net/DTD/sodipodi-0.dtd"
   xmlns:inkscape="http://www.inkscape.org/namespaces/inkscape"
   width="744.09448819"
   height="1052.3622047"
   id="svg2"
   version="1.1"
   inkscape:version="0.48.4 r9939"
   sodipodi:docname="mindmapping.svg">
  <defs
     id="defs4" />
  <sodipodi:namedview
     id="base"
     pagecolor="#ffffff"
     bordercolor="#666666"
     borderopacity="1.0"
     inkscape:pageopacity="0.0"
     inkscape:pageshadow="2"
     inkscape:zoom="0.35"
     inkscape:cx="375"
     inkscape:cy="385.55692"
     inkscape:document-units="px"
     inkscape:current-layer="layer1"
     showgrid="false"
     inkscape:window-width="1366"
     inkscape:window-height="706"
     inkscape:window-x="-8"
     inkscape:window-y="-8"
     inkscape:window-maximized="1" />
  <metadata
     id="metadata7">
    <rdf:RDF>
      <cc:Work
         rdf:about="">
        <dc:format>image/svg+xml</dc:format>
        <dc:type
           rdf:resource="http://purl.org/dc/dcmitype/StillImage" />
        <dc:title></dc:title>
      </cc:Work>
    </rdf:RDF>
  </metadata>
  <g
     inkscape:label="Layer 1"
     inkscape:groupmode="layer"
     id="layer1">
    <g
       id="g3342"
       inkscape:export-filename="C:\Users\Sachet\Desktop\mindmap1.png"
       inkscape:export-xdpi="90"
       inkscape:export-ydpi="90">
      <rect
         style="fill:#ffffff;stroke:#000000"
         id="rect3340"
         width="691.42859"
         height="448.57144"
         x="11.428572"
         y="3.7907541" />
      <g
         inkscape:export-ydpi="90"
         inkscape:export-xdpi="90"
         inkscape:export-filename="C:\Users\Sachet\Desktop\mindmap1.png"
         transform="translate(128.57143,22.857143)"
         id="g3282">
        <path
           transform="translate(-205.71429,-57.142859)"
           d="m 394.28572,115.21932 c 0,20.51344 -35.17762,37.14286 -78.57143,37.14286 -43.3938,0 -78.57142,-16.62942 -78.57142,-37.14286 0,-20.513431 35.17762,-37.142854 78.57142,-37.142854 43.39381,0 78.57143,16.629423 78.57143,37.142854 z"
           sodipodi:ry="37.142857"
           sodipodi:rx="78.571426"
           sodipodi:cy="115.21932"
           sodipodi:cx="315.71429"
           id="path3073"
           style="fill:none;stroke:#000000"
           sodipodi:type="arc" />
        <path
           transform="translate(-205.71429,-57.142859)"
           d="m 394.28572,115.21932 c 0,20.51344 -35.17762,37.14286 -78.57143,37.14286 -43.3938,0 -78.57142,-16.62942 -78.57142,-37.14286 0,-20.513431 35.17762,-37.142854 78.57142,-37.142854 43.39381,0 78.57143,16.629423 78.57143,37.142854 z"
           sodipodi:ry="37.142857"
           sodipodi:rx="78.571426"
           sodipodi:cy="115.21932"
           sodipodi:cx="315.71429"
           id="path3133"
           style="fill:none;stroke:#000000"
           sodipodi:type="arc" />
        <text
           xml:space="preserve"
           style="font-size:40px;font-style:normal;font-weight:normal;line-height:125%;letter-spacing:0px;word-spacing:0px;fill:#000000;fill-opacity:1;stroke:none;font-family:Sans"
           x="57.142864"
           y="72.362183"
           id="text3085"
           sodipodi:linespacing="125%"><tspan
             sodipodi:role="line"
             id="tspan3087"
             x="57.142864"
             y="72.362183">Brush</tspan></text>
      </g>
      <g
         inkscape:export-ydpi="90"
         inkscape:export-xdpi="90"
         inkscape:export-filename="C:\Users\Sachet\Desktop\mindmap1.png"
         transform="translate(171.42857,-11.428571)"
         id="g3267">
        <path
           d="m 394.28572,115.21932 c 0,20.51344 -35.17762,37.14286 -78.57143,37.14286 -43.3938,0 -78.57142,-16.62942 -78.57142,-37.14286 0,-20.513431 35.17762,-37.142854 78.57142,-37.142854 43.39381,0 78.57143,16.629423 78.57143,37.142854 z"
           sodipodi:ry="37.142857"
           sodipodi:rx="78.571426"
           sodipodi:cy="115.21932"
           sodipodi:cx="315.71429"
           id="path3125"
           style="fill:none;stroke:#000000"
           sodipodi:type="arc"
           transform="translate(-17.142857,-20)" />
        <text
           xml:space="preserve"
           style="font-size:40px;font-style:normal;font-weight:normal;line-height:125%;letter-spacing:0px;word-spacing:0px;fill:#000000;fill-opacity:1;stroke:none;font-family:Sans"
           x="254.28571"
           y="106.6479"
           id="text3089"
           sodipodi:linespacing="125%"><tspan
             sodipodi:role="line"
             id="tspan3091"
             x="254.28571"
             y="106.6479">Food</tspan></text>
      </g>
      <g
         inkscape:export-ydpi="90"
         inkscape:export-xdpi="90"
         inkscape:export-filename="C:\Users\Sachet\Desktop\mindmap1.png"
         transform="translate(57.142857,85.714286)"
         id="g3257">
        <path
           transform="translate(191.42857,-17.142858)"
           d="m 394.28572,115.21932 c 0,20.51344 -35.17762,37.14286 -78.57143,37.14286 -43.3938,0 -78.57142,-16.62942 -78.57142,-37.14286 0,-20.513431 35.17762,-37.142854 78.57142,-37.142854 43.39381,0 78.57143,16.629423 78.57143,37.142854 z"
           sodipodi:ry="37.142857"
           sodipodi:rx="78.571426"
           sodipodi:cy="115.21932"
           sodipodi:cx="315.71429"
           id="path3131"
           style="fill:none;stroke:#000000"
           sodipodi:type="arc" />
        <text
           xml:space="preserve"
           style="font-size:40px;font-style:normal;font-weight:normal;line-height:125%;letter-spacing:0px;word-spacing:0px;fill:#000000;fill-opacity:1;stroke:none;font-family:Sans"
           x="468.57144"
           y="106.6479"
           id="text3093"
           sodipodi:linespacing="125%"><tspan
             sodipodi:role="line"
             id="tspan3095"
             x="468.57144"
             y="106.6479">Bike</tspan></text>
      </g>
      <g
         inkscape:export-ydpi="90"
         inkscape:export-xdpi="90"
         inkscape:export-filename="C:\Users\Sachet\Desktop\mindmap1.png"
         transform="translate(-134.28571,91.428571)"
         id="g3252">
        <path
           transform="translate(297.14285,71.428569)"
           d="m 394.28572,115.21932 c 0,20.51344 -35.17762,37.14286 -78.57143,37.14286 -43.3938,0 -78.57142,-16.62942 -78.57142,-37.14286 0,-20.513431 35.17762,-37.142854 78.57142,-37.142854 43.39381,0 78.57143,16.629423 78.57143,37.142854 z"
           sodipodi:ry="37.142857"
           sodipodi:rx="78.571426"
           sodipodi:cy="115.21932"
           sodipodi:cx="315.71429"
           id="path3081"
           style="fill:none;stroke:#000000"
           sodipodi:type="arc" />
        <text
           xml:space="preserve"
           style="font-size:40px;font-style:normal;font-weight:normal;line-height:125%;letter-spacing:0px;word-spacing:0px;fill:#000000;fill-opacity:1;stroke:none;font-family:Sans"
           x="545.71436"
           y="198.07646"
           id="text3097"
           sodipodi:linespacing="125%"><tspan
             sodipodi:role="line"
             id="tspan3099"
             x="545.71436"
             y="198.07646"
             style="font-size:36px">Football</tspan></text>
      </g>
      <g
         inkscape:export-ydpi="90"
         inkscape:export-xdpi="90"
         inkscape:export-filename="C:\Users\Sachet\Desktop\mindmap1.png"
         transform="translate(-5.7142857,74.285714)"
         id="g3237">
        <path
           transform="translate(277.14285,200)"
           d="m 394.28572,115.21932 c 0,20.51344 -35.17762,37.14286 -78.57143,37.14286 -43.3938,0 -78.57142,-16.62942 -78.57142,-37.14286 0,-20.513431 35.17762,-37.142854 78.57142,-37.142854 43.39381,0 78.57143,16.629423 78.57143,37.142854 z"
           sodipodi:ry="37.142857"
           sodipodi:rx="78.571426"
           sodipodi:cy="115.21932"
           sodipodi:cx="315.71429"
           id="path3079"
           style="fill:none;stroke:#000000"
           sodipodi:type="arc" />
        <text
           xml:space="preserve"
           style="font-size:40px;font-style:normal;font-weight:normal;line-height:125%;letter-spacing:0px;word-spacing:0px;fill:#000000;fill-opacity:1;stroke:none;font-family:Sans"
           x="537.14294"
           y="323.79074"
           id="text3101"
           sodipodi:linespacing="125%"><tspan
             sodipodi:role="line"
             id="tspan3103"
             x="537.14294"
             y="323.79074">Coffee</tspan></text>
      </g>
      <g
         inkscape:export-ydpi="90"
         inkscape:export-xdpi="90"
         inkscape:export-filename="C:\Users\Sachet\Desktop\mindmap1.png"
         transform="translate(-5.7142857,45.714286)"
         id="g3242">
        <path
           sodipodi:type="arc"
           style="fill:none;stroke:#000000"
           id="path3143"
           sodipodi:cx="315.71429"
           sodipodi:cy="115.21932"
           sodipodi:rx="78.571426"
           sodipodi:ry="37.142857"
           d="m 394.28572,115.21932 c 0,20.51344 -35.17762,37.14286 -78.57143,37.14286 -43.3938,0 -78.57142,-16.62942 -78.57142,-37.14286 0,-20.513431 35.17762,-37.142854 78.57142,-37.142854 43.39381,0 78.57143,16.629423 78.57143,37.142854 z"
           transform="matrix(1.0903342,0,0,1.0903342,-204.23411,215.84933)" />
        <text
           sodipodi:linespacing="125%"
           id="text3105"
           y="352.36215"
           x="62.857224"
           style="font-size:40px;font-style:normal;font-weight:normal;line-height:125%;letter-spacing:0px;word-spacing:0px;fill:#000000;fill-opacity:1;stroke:none;font-family:Sans"
           xml:space="preserve"><tspan
             y="352.36215"
             x="62.857224"
             id="tspan3107"
             sodipodi:role="line"
             style="font-size:36px">Computer</tspan></text>
      </g>
      <g
         inkscape:export-ydpi="90"
         inkscape:export-xdpi="90"
         inkscape:export-filename="C:\Users\Sachet\Desktop\mindmap1.png"
         transform="translate(-57.142857,148.57143)"
         id="g3247">
        <path
           transform="translate(97.142853,131.42857)"
           d="m 394.28572,115.21932 c 0,20.51344 -35.17762,37.14286 -78.57143,37.14286 -43.3938,0 -78.57142,-16.62942 -78.57142,-37.14286 0,-20.513431 35.17762,-37.142854 78.57142,-37.142854 43.39381,0 78.57143,16.629423 78.57143,37.142854 z"
           sodipodi:ry="37.142857"
           sodipodi:rx="78.571426"
           sodipodi:cy="115.21932"
           sodipodi:cx="315.71429"
           id="path3069"
           style="fill:none;stroke:#000000"
           sodipodi:type="arc" />
        <text
           sodipodi:linespacing="125%"
           id="text3109"
           y="258.07645"
           x="354.2858"
           style="font-size:40px;font-style:normal;font-weight:normal;line-height:125%;letter-spacing:0px;word-spacing:0px;fill:#000000;fill-opacity:1;stroke:none;font-family:Sans"
           xml:space="preserve"><tspan
             y="258.07645"
             x="354.2858"
             id="tspan3111"
             sodipodi:role="line">Spoon</tspan></text>
      </g>
      <g
         inkscape:export-ydpi="90"
         inkscape:export-xdpi="90"
         inkscape:export-filename="C:\Users\Sachet\Desktop\mindmap1.png"
         transform="translate(28.571429,37.142857)"
         id="g3272">
        <path
           transform="translate(-102.85714,131.42857)"
           d="m 394.28572,115.21932 c 0,20.51344 -35.17762,37.14286 -78.57143,37.14286 -43.3938,0 -78.57142,-16.62942 -78.57142,-37.14286 0,-20.513431 35.17762,-37.142854 78.57142,-37.142854 43.39381,0 78.57143,16.629423 78.57143,37.142854 z"
           sodipodi:ry="37.142857"
           sodipodi:rx="78.571426"
           sodipodi:cy="115.21932"
           sodipodi:cx="315.71429"
           id="path3067"
           style="fill:none;stroke:#000000"
           sodipodi:type="arc" />
        <text
           sodipodi:linespacing="125%"
           id="text3113"
           y="258.07645"
           x="165.71434"
           style="font-size:40px;font-style:normal;font-weight:normal;line-height:125%;letter-spacing:0px;word-spacing:0px;fill:#000000;fill-opacity:1;stroke:none;font-family:Sans"
           xml:space="preserve"><tspan
             y="258.07645"
             x="165.71434"
             id="tspan3115"
             sodipodi:role="line">Bottle</tspan></text>
      </g>
      <g
         inkscape:export-ydpi="90"
         inkscape:export-xdpi="90"
         inkscape:export-filename="C:\Users\Sachet\Desktop\mindmap1.png"
         transform="translate(25.714286,31.428571)"
         id="g3277">
        <path
           sodipodi:type="arc"
           style="fill:none;stroke:#000000"
           id="path3135"
           sodipodi:cx="315.71429"
           sodipodi:cy="115.21932"
           sodipodi:rx="78.571426"
           sodipodi:ry="37.142857"
           d="m 394.28572,115.21932 c 0,20.51344 -35.17762,37.14286 -78.57143,37.14286 -43.3938,0 -78.57142,-16.62942 -78.57142,-37.14286 0,-20.513431 35.17762,-37.142854 78.57142,-37.142854 43.39381,0 78.57143,16.629423 78.57143,37.142854 z"
           transform="translate(-211.42858,37.142855)" />
        <text
           xml:space="preserve"
           style="font-size:40px;font-style:normal;font-weight:normal;line-height:125%;letter-spacing:0px;word-spacing:0px;fill:#000000;fill-opacity:1;stroke:none;font-family:Sans"
           x="45.714359"
           y="163.79074"
           id="text3117"
           sodipodi:linespacing="125%"><tspan
             sodipodi:role="line"
             id="tspan3119"
             x="45.714359"
             y="163.79074">Guitar</tspan></text>
      </g>
      <g
         inkscape:export-ydpi="90"
         inkscape:export-xdpi="90"
         inkscape:export-filename="C:\Users\Sachet\Desktop\mindmap1.png"
         transform="translate(-11.428571,25.714286)"
         id="g3262">
        <path
           sodipodi:type="arc"
           style="fill:none;stroke:#000000"
           id="path3137"
           sodipodi:cx="315.71429"
           sodipodi:cy="115.21932"
           sodipodi:rx="78.571426"
           sodipodi:ry="37.142857"
           d="m 394.28572,115.21932 c 0,20.51344 -35.17762,37.14286 -78.57143,37.14286 -43.3938,0 -78.57142,-16.62942 -78.57142,-37.14286 0,-20.513431 35.17762,-37.142854 78.57142,-37.142854 43.39381,0 78.57143,16.629423 78.57143,37.142854 z"
           transform="translate(54.285699,51.428569)" />
        <text
           sodipodi:linespacing="125%"
           id="text3121"
           y="178.07645"
           x="317.14291"
           style="font-size:40px;font-style:normal;font-weight:normal;line-height:125%;letter-spacing:0px;word-spacing:0px;fill:#000000;fill-opacity:1;stroke:none;font-family:Sans"
           xml:space="preserve"><tspan
             y="178.07645"
             x="317.14291"
             id="tspan3123"
             sodipodi:role="line">Chair</tspan></text>
      </g>
    </g>
    <text
       sodipodi:linespacing="125%"
       id="text3181"
       y="178.07645"
       x="320.00006"
       style="font-size:40px;font-style:normal;font-weight:normal;line-height:125%;letter-spacing:0px;word-spacing:0px;fill:#000000;fill-opacity:1;stroke:none;font-family:Sans"
       xml:space="preserve"><tspan
         y="178.07645"
         x="320.00006"
         id="tspan3183"
         sodipodi:role="line" /></text>
    <g
       id="g3386"
       inkscape:export-filename="C:\Users\Sachet\Desktop\mindmap2.png"
       inkscape:export-xdpi="90"
       inkscape:export-ydpi="90">
      <rect
         y="580.93359"
         x="20"
         height="448.57144"
         width="691.42859"
         id="rect3338"
         style="fill:#ffffff;stroke:#000000" />
      <g
         inkscape:export-ydpi="90"
         inkscape:export-xdpi="90"
         inkscape:export-filename="C:\Users\Sachet\Desktop\mindmap2.png"
         transform="translate(34.285714,82.857143)"
         id="g3288">
        <path
           sodipodi:type="arc"
           style="fill:none;stroke:#000000"
           id="path3013"
           sodipodi:cx="315.71429"
           sodipodi:cy="115.21932"
           sodipodi:rx="78.571426"
           sodipodi:ry="37.142857"
           d="m 394.28572,115.21932 c 0,20.51344 -35.17762,37.14286 -78.57143,37.14286 -43.3938,0 -78.57142,-16.62942 -78.57142,-37.14286 0,-20.513431 35.17762,-37.142854 78.57142,-37.142854 43.39381,0 78.57143,16.629423 78.57143,37.142854 z"
           transform="translate(-188.57144,462.85714)" />
        <text
           sodipodi:linespacing="125%"
           id="text3029"
           y="592.36218"
           x="74.285721"
           style="font-size:40px;font-style:normal;font-weight:normal;line-height:125%;letter-spacing:0px;word-spacing:0px;fill:#000000;fill-opacity:1;stroke:none;font-family:Sans"
           xml:space="preserve"><tspan
             y="592.36218"
             x="74.285721"
             id="tspan3031"
             sodipodi:role="line">Shoes</tspan></text>
      </g>
      <g
         inkscape:export-ydpi="90"
         inkscape:export-xdpi="90"
         inkscape:export-filename="C:\Users\Sachet\Desktop\mindmap2.png"
         transform="translate(62.857143,11.428567)"
         id="g3293">
        <path
           sodipodi:type="arc"
           style="fill:none;stroke:#000000"
           id="path3005"
           sodipodi:cx="315.71429"
           sodipodi:cy="115.21932"
           sodipodi:rx="78.571426"
           sodipodi:ry="37.142857"
           d="m 394.28572,115.21932 c 0,20.51344 -35.17762,37.14286 -78.57143,37.14286 -43.3938,0 -78.57142,-16.62942 -78.57142,-37.14286 0,-20.513431 35.17762,-37.142854 78.57142,-37.142854 43.39381,0 78.57143,16.629423 78.57143,37.142854 z"
           transform="translate(0,500)" />
        <text
           sodipodi:linespacing="125%"
           id="text3033"
           y="626.64789"
           x="282.85715"
           style="font-size:40px;font-style:normal;font-weight:normal;line-height:125%;letter-spacing:0px;word-spacing:0px;fill:#000000;fill-opacity:1;stroke:none;font-family:Sans"
           xml:space="preserve"><tspan
             y="626.64789"
             x="282.85715"
             id="tspan3035"
             sodipodi:role="line">Hair</tspan></text>
      </g>
      <g
         inkscape:export-ydpi="90"
         inkscape:export-xdpi="90"
         inkscape:export-filename="C:\Users\Sachet\Desktop\mindmap2.png"
         transform="translate(57.142857,45.714285)"
         id="g3298">
        <path
           sodipodi:type="arc"
           style="fill:none;stroke:#000000"
           id="path3011"
           sodipodi:cx="315.71429"
           sodipodi:cy="115.21932"
           sodipodi:rx="78.571426"
           sodipodi:ry="37.142857"
           d="m 394.28572,115.21932 c 0,20.51344 -35.17762,37.14286 -78.57143,37.14286 -43.3938,0 -78.57142,-16.62942 -78.57142,-37.14286 0,-20.513431 35.17762,-37.142854 78.57142,-37.142854 43.39381,0 78.57143,16.629423 78.57143,37.142854 z"
           transform="translate(208.57142,502.85714)" />
        <text
           sodipodi:linespacing="125%"
           id="text3037"
           y="632.36218"
           x="471.42859"
           style="font-size:40px;font-style:normal;font-weight:normal;line-height:125%;letter-spacing:0px;word-spacing:0px;fill:#000000;fill-opacity:1;stroke:none;font-family:Sans"
           xml:space="preserve"><tspan
             y="632.36218"
             x="471.42859"
             id="tspan3039"
             sodipodi:role="line">Phone</tspan></text>
      </g>
      <g
         inkscape:export-ydpi="90"
         inkscape:export-xdpi="90"
         inkscape:export-filename="C:\Users\Sachet\Desktop\mindmap2.png"
         transform="translate(-42.857143,71.428571)"
         id="g3318">
        <path
           sodipodi:type="arc"
           style="fill:none;stroke:#000000"
           id="path3021"
           sodipodi:cx="315.71429"
           sodipodi:cy="115.21932"
           sodipodi:rx="78.571426"
           sodipodi:ry="37.142857"
           d="m 394.28572,115.21932 c 0,20.51344 -35.17762,37.14286 -78.57143,37.14286 -43.3938,0 -78.57142,-16.62942 -78.57142,-37.14286 0,-20.513431 35.17762,-37.142854 78.57142,-37.142854 43.39381,0 78.57143,16.629423 78.57143,37.142854 z"
           transform="translate(314.2857,591.42857)" />
        <text
           sodipodi:linespacing="125%"
           id="text3041"
           y="718.07648"
           x="568.57147"
           style="font-size:40px;font-style:normal;font-weight:normal;line-height:125%;letter-spacing:0px;word-spacing:0px;fill:#000000;fill-opacity:1;stroke:none;font-family:Sans"
           xml:space="preserve"><tspan
             y="718.07648"
             x="568.57147"
             id="tspan3043"
             sodipodi:role="line">Ladder</tspan></text>
      </g>
      <g
         inkscape:export-ydpi="90"
         inkscape:export-xdpi="90"
         inkscape:export-filename="C:\Users\Sachet\Desktop\mindmap2.png"
         transform="translate(-25.714286,74.285714)"
         id="g3303">
        <path
           sodipodi:type="arc"
           style="fill:none;stroke:#000000"
           id="path3019"
           sodipodi:cx="315.71429"
           sodipodi:cy="115.21932"
           sodipodi:rx="78.571426"
           sodipodi:ry="37.142857"
           d="m 394.28572,115.21932 c 0,20.51344 -35.17762,37.14286 -78.57143,37.14286 -43.3938,0 -78.57142,-16.62942 -78.57142,-37.14286 0,-20.513431 35.17762,-37.142854 78.57142,-37.142854 43.39381,0 78.57143,16.629423 78.57143,37.142854 z"
           transform="translate(294.2857,720)" />
        <text
           sodipodi:linespacing="125%"
           id="text3045"
           y="846.64789"
           x="560.00006"
           style="font-size:40px;font-style:normal;font-weight:normal;line-height:125%;letter-spacing:0px;word-spacing:0px;fill:#000000;fill-opacity:1;stroke:none;font-family:Sans"
           xml:space="preserve"><tspan
             y="846.64789"
             x="560.00006"
             id="tspan3047"
             sodipodi:role="line">Plane</tspan></text>
      </g>
      <g
         inkscape:export-ydpi="90"
         inkscape:export-xdpi="90"
         inkscape:export-filename="C:\Users\Sachet\Desktop\mindmap2.png"
         transform="translate(-37.142858,-6.2857143)"
         id="g3308">
        <path
           transform="translate(97.142843,742.85714)"
           d="m 394.28572,115.21932 c 0,20.51344 -35.17762,37.14286 -78.57143,37.14286 -43.3938,0 -78.57142,-16.62942 -78.57142,-37.14286 0,-20.513431 35.17762,-37.142854 78.57142,-37.142854 43.39381,0 78.57143,16.629423 78.57143,37.142854 z"
           sodipodi:ry="37.142857"
           sodipodi:rx="78.571426"
           sodipodi:cy="115.21932"
           sodipodi:cx="315.71429"
           id="path3023"
           style="fill:none;stroke:#000000"
           sodipodi:type="arc" />
        <text
           xml:space="preserve"
           style="font-size:40px;font-style:normal;font-weight:normal;line-height:125%;letter-spacing:0px;word-spacing:0px;fill:#000000;fill-opacity:1;stroke:none;font-family:Sans"
           x="382.85721"
           y="869.50507"
           id="text3053"
           sodipodi:linespacing="125%"><tspan
             sodipodi:role="line"
             id="tspan3055"
             x="382.85721"
             y="869.50507">Hat</tspan></text>
      </g>
      <g
         inkscape:export-ydpi="90"
         inkscape:export-xdpi="90"
         inkscape:export-filename="C:\Users\Sachet\Desktop\mindmap2.png"
         transform="translate(-54.285714,212)"
         id="g3333">
        <path
           sodipodi:type="arc"
           style="fill:none;stroke:#000000"
           id="path3009"
           sodipodi:cx="315.71429"
           sodipodi:cy="115.21932"
           sodipodi:rx="78.571426"
           sodipodi:ry="37.142857"
           d="m 394.28572,115.21932 c 0,20.51344 -35.17762,37.14286 -78.57143,37.14286 -43.3938,0 -78.57142,-16.62942 -78.57142,-37.14286 0,-20.513431 35.17762,-37.142854 78.57142,-37.142854 43.39381,0 78.57143,16.629423 78.57143,37.142854 z"
           transform="translate(114.28571,651.42857)" />
        <text
           xml:space="preserve"
           style="font-size:40px;font-style:normal;font-weight:normal;line-height:125%;letter-spacing:0px;word-spacing:0px;fill:#000000;fill-opacity:1;stroke:none;font-family:Sans"
           x="400.00006"
           y="778.07642"
           id="text3057"
           sodipodi:linespacing="125%"><tspan
             sodipodi:role="line"
             id="tspan3059"
             x="400.00006"
             y="778.07642">Fan</tspan></text>
      </g>
      <g
         inkscape:export-ydpi="90"
         inkscape:export-xdpi="90"
         inkscape:export-filename="C:\Users\Sachet\Desktop\mindmap2.png"
         transform="translate(-62.857143,142.85714)"
         id="g3313">
        <path
           sodipodi:type="arc"
           style="fill:none;stroke:#000000"
           id="path3007"
           sodipodi:cx="315.71429"
           sodipodi:cy="115.21932"
           sodipodi:rx="78.571426"
           sodipodi:ry="37.142857"
           d="m 394.28572,115.21932 c 0,20.51344 -35.17762,37.14286 -78.57143,37.14286 -43.3938,0 -78.57142,-16.62942 -78.57142,-37.14286 0,-20.513431 35.17762,-37.142854 78.57142,-37.142854 43.39381,0 78.57143,16.629423 78.57143,37.142854 z"
           transform="translate(-85.714286,651.42857)" />
        <text
           xml:space="preserve"
           style="font-size:40px;font-style:normal;font-weight:normal;line-height:125%;letter-spacing:0px;word-spacing:0px;fill:#000000;fill-opacity:1;stroke:none;font-family:Sans"
           x="174.28578"
           y="778.07642"
           id="text3061"
           sodipodi:linespacing="125%"><tspan
             sodipodi:role="line"
             id="tspan3063"
             x="174.28578"
             y="778.07642">Jacket</tspan></text>
      </g>
      <g
         inkscape:export-ydpi="90"
         inkscape:export-xdpi="90"
         inkscape:export-filename="C:\Users\Sachet\Desktop\mindmap2.png"
         transform="translate(42.857143,102.85714)"
         id="g3328">
        <path
           transform="translate(-194.28573,557.14286)"
           d="m 394.28572,115.21932 c 0,20.51344 -35.17762,37.14286 -78.57143,37.14286 -43.3938,0 -78.57142,-16.62942 -78.57142,-37.14286 0,-20.513431 35.17762,-37.142854 78.57142,-37.142854 43.39381,0 78.57143,16.629423 78.57143,37.142854 z"
           sodipodi:ry="37.142857"
           sodipodi:rx="78.571426"
           sodipodi:cy="115.21932"
           sodipodi:cx="315.71429"
           id="path3015"
           style="fill:none;stroke:#000000"
           sodipodi:type="arc" />
        <text
           sodipodi:linespacing="125%"
           id="text3049"
           y="683.79071"
           x="77.142929"
           style="font-size:40px;font-style:normal;font-weight:normal;line-height:125%;letter-spacing:0px;word-spacing:0px;fill:#000000;fill-opacity:1;stroke:none;font-family:Sans"
           xml:space="preserve"><tspan
             y="683.79071"
             x="77.142929"
             id="tspan3051"
             sodipodi:role="line">Tank</tspan></text>
      </g>
      <g
         inkscape:export-ydpi="90"
         inkscape:export-xdpi="90"
         inkscape:export-filename="C:\Users\Sachet\Desktop\mindmap2.png"
         transform="translate(-11.428571,42.857143)"
         id="g3323">
        <path
           transform="translate(71.428556,571.42857)"
           d="m 394.28572,115.21932 c 0,20.51344 -35.17762,37.14286 -78.57143,37.14286 -43.3938,0 -78.57142,-16.62942 -78.57142,-37.14286 0,-20.513431 35.17762,-37.142854 78.57142,-37.142854 43.39381,0 78.57143,16.629423 78.57143,37.142854 z"
           sodipodi:ry="37.142857"
           sodipodi:rx="78.571426"
           sodipodi:cy="115.21932"
           sodipodi:cx="315.71429"
           id="path3017"
           style="fill:none;stroke:#000000"
           sodipodi:type="arc" />
        <text
           xml:space="preserve"
           style="font-size:40px;font-style:normal;font-weight:normal;line-height:125%;letter-spacing:0px;word-spacing:0px;fill:#000000;fill-opacity:1;stroke:none;font-family:Sans"
           x="354.28577"
           y="698.07642"
           id="text3025"
           sodipodi:linespacing="125%"><tspan
             sodipodi:role="line"
             id="tspan3027"
             x="354.28577"
             y="698.07642">Pen</tspan></text>
      </g>
    </g>
  </g>
</svg>
